<svg width="12" height="7" viewBox="0 0 12 7" fill="none" xmlns="http://www.w3.org/2000/svg">
<path d="M6 7.36986e-07C6.11057 -0.000122917 6.22007 0.0221039 6.32221 0.0654039C6.42435 0.108704 6.51713 0.172225 6.5952 0.252316L11.7627 5.5395C11.9165 5.70184 12.0017 5.91953 12 6.14558C11.9982 6.37163 11.9097 6.58792 11.7534 6.74777C11.5972 6.90761 11.3857 6.9982 11.1648 6.99997C10.9438 7.00175 10.731 6.91458 10.5723 6.75726L6 2.07896L1.42768 6.75726C1.26899 6.91458 1.05619 7.00175 0.835222 6.99997C0.614252 6.99819 0.402825 6.90761 0.24657 6.74776C0.0903158 6.58792 0.00176422 6.37163 2.65357e-05 6.14558C-0.00171115 5.91953 0.0835048 5.70184 0.237283 5.5395L5.4048 0.252316C5.48288 0.172225 5.57565 0.108704 5.67779 0.0654038C5.77993 0.0221038 5.88943 -0.000122937 6 7.36986e-07Z" fill="#959595"/>
</svg>
