<svg width="18" height="18" viewBox="0 0 18 18" fill="none" xmlns="http://www.w3.org/2000/svg">
<path d="M9.075 15.9C12.8443 15.9 15.9 12.8443 15.9 9.075C15.9 5.30566 12.8443 2.25 9.075 2.25C5.30566 2.25 2.25 5.30566 2.25 9.075C2.25 12.8443 5.30566 15.9 9.075 15.9Z" fill="#58AA46" fill-opacity="0.9"/>
<path d="M11.25 6.75L9 9M9 9L6.75 11.25M9 9L6.75 6.75M9 9L11.25 11.25M15.9 9.075C15.9 12.8443 12.8443 15.9 9.075 15.9C5.30566 15.9 2.25 12.8443 2.25 9.075C2.25 5.30566 5.30566 2.25 9.075 2.25C12.8443 2.25 15.9 5.30566 15.9 9.075Z" stroke="white" stroke-linecap="round"/>
</svg>
