<svg width="15" height="15" viewBox="0 0 15 15" fill="none" xmlns="http://www.w3.org/2000/svg">
<path d="M6.15477 10.9503C5.99742 10.9502 5.84164 10.919 5.69642 10.8584C5.55119 10.7978 5.41939 10.7091 5.30859 10.5974L3.04447 8.33328C2.93094 8.22271 2.84051 8.09068 2.77843 7.94487C2.71635 7.79906 2.68385 7.64237 2.68283 7.4839C2.6818 7.32542 2.71227 7.16832 2.77246 7.02172C2.83265 6.87512 2.92137 6.74194 3.03346 6.62991C3.14555 6.51788 3.27878 6.42923 3.42541 6.36911C3.57204 6.309 3.72916 6.27861 3.88763 6.27972C4.0461 6.28083 4.20278 6.31341 4.34856 6.37556C4.49433 6.43772 4.62631 6.52822 4.73683 6.64181L6.15477 8.06063L9.97359 4.24181C10.198 4.01739 10.5024 3.89131 10.8198 3.89131C11.1371 3.89131 11.4415 4.01739 11.6659 4.24181C11.8904 4.46623 12.0164 4.77061 12.0164 5.08799C12.0164 5.40536 11.8904 5.70974 11.6659 5.93416L6.99741 10.5992C6.77398 10.823 6.47102 10.9492 6.15477 10.9503Z" fill="white"/>
</svg>
