<svg width="0" height="0" style="position:absolute"><symbol viewBox="0 0 12 7" id="Arrow" xmlns="http://www.w3.org/2000/svg"><path d="M6 0a.823.823 0 0 1 .595.252l5.168 5.287a.872.872 0 0 1-.01 1.209.832.832 0 0 1-1.18.01L6 2.078 1.428 6.757a.832.832 0 0 1-1.181-.01.871.871 0 0 1-.01-1.207L5.405.252A.838.838 0 0 1 6 0Z"/></symbol><symbol viewBox="0 0 18 18" id="Cancel" xmlns="http://www.w3.org/2000/svg"><path d="M9.075 15.9a6.825 6.825 0 1 0 0-13.65 6.825 6.825 0 0 0 0 13.65Z" fill-opacity=".9"/><path d="M11.25 6.75 9 9m0 0-2.25 2.25M9 9 6.75 6.75M9 9l2.25 2.25m4.65-2.175a6.825 6.825 0 1 1-13.65 0 6.825 6.825 0 0 1 13.65 0Z" stroke="currentColor" stroke-linecap="round"/></symbol><symbol viewBox="0 0 24 24" id="Search" xmlns="http://www.w3.org/2000/svg"><path d="m21.725 20.312-3.71-3.68a9 9 0 1 0-1.39 1.39l3.68 3.68a.994.994 0 1 0 1.42-1.39Zm-10.71-2.29a7 7 0 1 1 0-14 7 7 0 0 1 0 14Z"/></symbol><symbol viewBox="0 0 15 15" id="checkmark" xmlns="http://www.w3.org/2000/svg"><path d="M6.155 10.95a1.192 1.192 0 0 1-.846-.353L3.044 8.333a1.196 1.196 0 1 1 1.693-1.691L6.155 8.06l3.819-3.82a1.197 1.197 0 1 1 1.692 1.693L6.997 10.6c-.223.224-.526.35-.842.351Z"/></symbol></svg>